<svg width="1440" height="719" viewBox="0 0 1440 719" fill="none" xmlns="http://www.w3.org/2000/svg">
<rect width="1440" height="717.27" fill="#F4F4F4"/>
<g opacity="0.1">
<rect width="179.317" height="180" transform="matrix(4.37114e-08 1 1 -4.37114e-08 0 0)" stroke="#191919" stroke-width="2"/>
<rect width="179.317" height="180" transform="matrix(4.37114e-08 1 1 -4.37114e-08 0 179.319)" stroke="#191919" stroke-width="2"/>
<rect width="179.317" height="180" transform="matrix(4.37114e-08 1 1 -4.37114e-08 0 358.635)" stroke="#191919" stroke-width="2"/>
<rect width="179.317" height="180" transform="matrix(4.37114e-08 1 1 -4.37114e-08 0 537.953)" stroke="#191919" stroke-width="2"/>
<rect width="179.317" height="180" transform="matrix(4.37114e-08 1 1 -4.37114e-08 180.002 0)" stroke="#191919" stroke-width="2"/>
<rect width="179.317" height="180" transform="matrix(4.37114e-08 1 1 -4.37114e-08 180.002 179.319)" stroke="#191919" stroke-width="2"/>
<rect width="179.317" height="180" transform="matrix(4.37114e-08 1 1 -4.37114e-08 180.002 358.634)" stroke="#191919" stroke-width="2"/>
<rect width="179.317" height="180" transform="matrix(4.37114e-08 1 1 -4.37114e-08 180.002 537.953)" stroke="#191919" stroke-width="2"/>
<rect width="179.317" height="180" transform="matrix(4.37114e-08 1 1 -4.37114e-08 360 0)" stroke="#191919" stroke-width="2"/>
<rect width="179.317" height="180" transform="matrix(4.37114e-08 1 1 -4.37114e-08 360 179.319)" stroke="#191919" stroke-width="2"/>
<rect width="179.317" height="180" transform="matrix(4.37114e-08 1 1 -4.37114e-08 360 358.634)" stroke="#191919" stroke-width="2"/>
<rect width="179.317" height="180" transform="matrix(4.37114e-08 1 1 -4.37114e-08 360 537.953)" stroke="#191919" stroke-width="2"/>
<rect width="179.317" height="180" transform="matrix(4.37114e-08 1 1 -4.37114e-08 540.003 0)" stroke="#191919" stroke-width="2"/>
<rect width="179.317" height="180" transform="matrix(4.37114e-08 1 1 -4.37114e-08 540.003 179.319)" stroke="#191919" stroke-width="2"/>
<rect width="179.317" height="180" transform="matrix(4.37114e-08 1 1 -4.37114e-08 540.003 358.635)" stroke="#191919" stroke-width="2"/>
<rect width="179.317" height="180" transform="matrix(4.37114e-08 1 1 -4.37114e-08 540.003 537.953)" stroke="#191919" stroke-width="2"/>
<rect width="179.317" height="180" transform="matrix(4.37114e-08 1 1 -4.37114e-08 719.998 0)" stroke="#191919" stroke-width="2"/>
<rect width="179.317" height="180" transform="matrix(4.37114e-08 1 1 -4.37114e-08 719.998 179.319)" stroke="#191919" stroke-width="2"/>
<rect width="179.317" height="180" transform="matrix(4.37114e-08 1 1 -4.37114e-08 719.998 358.634)" stroke="#191919" stroke-width="2"/>
<rect width="179.317" height="180" transform="matrix(4.37114e-08 1 1 -4.37114e-08 719.998 537.953)" stroke="#191919" stroke-width="2"/>
<rect width="179.317" height="180" transform="matrix(4.37114e-08 1 1 -4.37114e-08 900 0)" stroke="#191919" stroke-width="2"/>
<rect width="179.317" height="180" transform="matrix(4.37114e-08 1 1 -4.37114e-08 900 179.319)" stroke="#191919" stroke-width="2"/>
<rect width="179.317" height="180" transform="matrix(4.37114e-08 1 1 -4.37114e-08 900 358.634)" stroke="#191919" stroke-width="2"/>
<rect width="179.317" height="180" transform="matrix(4.37114e-08 1 1 -4.37114e-08 900 537.953)" stroke="#191919" stroke-width="2"/>
<rect width="179.317" height="180" transform="matrix(4.37114e-08 1 1 -4.37114e-08 1080 0)" stroke="#191919" stroke-width="2"/>
<rect width="179.317" height="180" transform="matrix(4.37114e-08 1 1 -4.37114e-08 1080 179.319)" stroke="#191919" stroke-width="2"/>
<rect width="179.317" height="180" transform="matrix(4.37114e-08 1 1 -4.37114e-08 1080 358.634)" stroke="#191919" stroke-width="2"/>
<rect width="179.317" height="180" transform="matrix(4.37114e-08 1 1 -4.37114e-08 1080 537.953)" stroke="#191919" stroke-width="2"/>
<rect width="179.317" height="180" transform="matrix(4.37114e-08 1 1 -4.37114e-08 1260 0)" stroke="#191919" stroke-width="2"/>
<rect width="179.317" height="180" transform="matrix(4.37114e-08 1 1 -4.37114e-08 1260 179.319)" stroke="#191919" stroke-width="2"/>
<rect width="179.317" height="180" transform="matrix(4.37114e-08 1 1 -4.37114e-08 1260 358.635)" stroke="#191919" stroke-width="2"/>
<rect width="179.317" height="180" transform="matrix(4.37114e-08 1 1 -4.37114e-08 1260 537.953)" stroke="#191919" stroke-width="2"/>
</g>
</svg>
