<svg width="1440" height="717" viewBox="0 0 1440 717" fill="none" xmlns="http://www.w3.org/2000/svg">
<g clip-path="url(#clip0_677_2478)">
<rect width="1440" height="717" fill="#30352F"/>
<g opacity="0.4">
<rect width="179.317" height="180" transform="matrix(4.37114e-08 1 1 -4.37114e-08 0 179.317)" stroke="#191919" stroke-width="2"/>
<rect width="179.317" height="180" transform="matrix(4.37114e-08 1 1 -4.37114e-08 0 0)" stroke="#191919" stroke-width="2"/>
<rect width="179.317" height="180" transform="matrix(4.37114e-08 1 1 -4.37114e-08 0 358.634)" stroke="#191919" stroke-width="2"/>
<rect width="179.317" height="180" transform="matrix(4.37114e-08 1 1 -4.37114e-08 0 537.952)" stroke="#191919" stroke-width="2"/>
<rect width="179.317" height="180" transform="matrix(4.37114e-08 1 1 -4.37114e-08 180.002 179.317)" stroke="#191919" stroke-width="2"/>
<rect width="179.317" height="180" transform="matrix(4.37114e-08 1 1 -4.37114e-08 180.002 0)" stroke="#191919" stroke-width="2"/>
<rect width="179.317" height="180" transform="matrix(4.37114e-08 1 1 -4.37114e-08 180.002 358.634)" stroke="#191919" stroke-width="2"/>
<rect width="179.317" height="180" transform="matrix(4.37114e-08 1 1 -4.37114e-08 180.002 537.952)" stroke="#191919" stroke-width="2"/>
<rect width="179.317" height="180" transform="matrix(4.37114e-08 1 1 -4.37114e-08 360.001 179.317)" stroke="#191919" stroke-width="2"/>
<rect width="179.317" height="180" transform="matrix(4.37114e-08 1 1 -4.37114e-08 360.001 0)" stroke="#191919" stroke-width="2"/>
<rect width="179.317" height="180" transform="matrix(4.37114e-08 1 1 -4.37114e-08 360.001 358.634)" stroke="#191919" stroke-width="2"/>
<rect width="179.317" height="180" transform="matrix(4.37114e-08 1 1 -4.37114e-08 360.001 537.952)" stroke="#191919" stroke-width="2"/>
<rect width="179.317" height="180" transform="matrix(4.37114e-08 1 1 -4.37114e-08 540.004 179.317)" stroke="#191919" stroke-width="2"/>
<rect width="179.317" height="180" transform="matrix(4.37114e-08 1 1 -4.37114e-08 540.004 0)" stroke="#191919" stroke-width="2"/>
<rect width="179.317" height="180" transform="matrix(4.37114e-08 1 1 -4.37114e-08 540.004 358.634)" stroke="#191919" stroke-width="2"/>
<rect width="179.317" height="180" transform="matrix(4.37114e-08 1 1 -4.37114e-08 540.004 537.952)" stroke="#191919" stroke-width="2"/>
<rect width="179.317" height="180" transform="matrix(4.37114e-08 1 1 -4.37114e-08 719.998 179.317)" stroke="#191919" stroke-width="2"/>
<rect width="179.317" height="180" transform="matrix(4.37114e-08 1 1 -4.37114e-08 719.998 0)" stroke="#191919" stroke-width="2"/>
<rect width="179.317" height="180" transform="matrix(4.37114e-08 1 1 -4.37114e-08 719.998 358.634)" stroke="#191919" stroke-width="2"/>
<rect width="179.317" height="180" transform="matrix(4.37114e-08 1 1 -4.37114e-08 719.998 537.952)" stroke="#191919" stroke-width="2"/>
<rect width="179.317" height="180" transform="matrix(4.37114e-08 1 1 -4.37114e-08 900 179.317)" stroke="#191919" stroke-width="2"/>
<rect width="179.317" height="180" transform="matrix(4.37114e-08 1 1 -4.37114e-08 900 0)" stroke="#191919" stroke-width="2"/>
<rect width="179.317" height="180" transform="matrix(4.37114e-08 1 1 -4.37114e-08 900 358.634)" stroke="#191919" stroke-width="2"/>
<rect width="179.317" height="180" transform="matrix(4.37114e-08 1 1 -4.37114e-08 900 537.952)" stroke="#191919" stroke-width="2"/>
<rect width="179.317" height="180" transform="matrix(4.37114e-08 1 1 -4.37114e-08 1080 179.317)" stroke="#191919" stroke-width="2"/>
<rect width="179.317" height="180" transform="matrix(4.37114e-08 1 1 -4.37114e-08 1080 0)" stroke="#191919" stroke-width="2"/>
<rect width="179.317" height="180" transform="matrix(4.37114e-08 1 1 -4.37114e-08 1080 358.634)" stroke="#191919" stroke-width="2"/>
<rect width="179.317" height="180" transform="matrix(4.37114e-08 1 1 -4.37114e-08 1080 537.952)" stroke="#191919" stroke-width="2"/>
<rect width="179.317" height="180" transform="matrix(4.37114e-08 1 1 -4.37114e-08 1260 179.317)" stroke="#191919" stroke-width="2"/>
<rect width="179.317" height="180" transform="matrix(4.37114e-08 1 1 -4.37114e-08 1260 0)" stroke="#191919" stroke-width="2"/>
<rect width="179.317" height="180" transform="matrix(4.37114e-08 1 1 -4.37114e-08 1260 358.634)" stroke="#191919" stroke-width="2"/>
<rect width="179.317" height="180" transform="matrix(4.37114e-08 1 1 -4.37114e-08 1260 537.952)" stroke="#191919" stroke-width="2"/>
</g>
</g>
<defs>
<clipPath id="clip0_677_2478">
<rect width="1440" height="717" fill="white"/>
</clipPath>
</defs>
</svg>
