<svg width="1440" height="899" viewBox="0 0 1440 899" fill="none" xmlns="http://www.w3.org/2000/svg">
<rect width="1440" height="792" transform="translate(0 1)" fill="#F4F4F4"/>
<g opacity="0.1">
<rect width="179.317" height="180" transform="matrix(4.37114e-08 1 1 -4.37114e-08 0 1)" stroke="#191919" stroke-width="2"/>
<rect width="179.317" height="180" transform="matrix(4.37114e-08 1 1 -4.37114e-08 0 180.318)" stroke="#191919" stroke-width="2"/>
<rect width="179.317" height="180" transform="matrix(4.37114e-08 1 1 -4.37114e-08 0 359.635)" stroke="#191919" stroke-width="2"/>
<rect width="179.317" height="180" transform="matrix(4.37114e-08 1 1 -4.37114e-08 0 538.952)" stroke="#191919" stroke-width="2"/>
<rect width="179.317" height="180" transform="matrix(4.37114e-08 1 1 -4.37114e-08 0 718)" stroke="#191919" stroke-width="2"/>
<rect width="179.317" height="180" transform="matrix(4.37114e-08 1 1 -4.37114e-08 180.004 1)" stroke="#191919" stroke-width="2"/>
<rect width="179.317" height="180" transform="matrix(4.37114e-08 1 1 -4.37114e-08 180.004 180.318)" stroke="#191919" stroke-width="2"/>
<rect width="179.317" height="180" transform="matrix(4.37114e-08 1 1 -4.37114e-08 180.004 359.635)" stroke="#191919" stroke-width="2"/>
<rect width="179.317" height="180" transform="matrix(4.37114e-08 1 1 -4.37114e-08 180 539)" stroke="#191919" stroke-width="2"/>
<rect width="179.317" height="180" transform="matrix(4.37114e-08 1 1 -4.37114e-08 180 718.048)" stroke="#191919" stroke-width="2"/>
<rect width="179.317" height="180" transform="matrix(4.37114e-08 1 1 -4.37114e-08 360.008 1)" stroke="#191919" stroke-width="2"/>
<rect width="179.317" height="180" transform="matrix(4.37114e-08 1 1 -4.37114e-08 360.008 180.318)" stroke="#191919" stroke-width="2"/>
<rect width="179.317" height="180" transform="matrix(4.37114e-08 1 1 -4.37114e-08 360.008 359.635)" stroke="#191919" stroke-width="2"/>
<rect width="179.317" height="180" transform="matrix(4.37114e-08 1 1 -4.37114e-08 360.008 538.952)" stroke="#191919" stroke-width="2"/>
<rect width="179.317" height="180" transform="matrix(4.37114e-08 1 1 -4.37114e-08 360.008 718)" stroke="#191919" stroke-width="2"/>
<rect width="179.317" height="180" transform="matrix(4.37114e-08 1 1 -4.37114e-08 540.004 1)" stroke="#191919" stroke-width="2"/>
<rect width="179.317" height="180" transform="matrix(4.37114e-08 1 1 -4.37114e-08 540.004 180.318)" stroke="#191919" stroke-width="2"/>
<rect width="179.317" height="180" transform="matrix(4.37114e-08 1 1 -4.37114e-08 540.004 359.635)" stroke="#191919" stroke-width="2"/>
<rect width="179.317" height="180" transform="matrix(4.37114e-08 1 1 -4.37114e-08 540.004 538.952)" stroke="#191919" stroke-width="2"/>
<rect width="179.317" height="180" transform="matrix(4.37114e-08 1 1 -4.37114e-08 540.004 718)" stroke="#191919" stroke-width="2"/>
<rect width="179.317" height="180" transform="matrix(4.37114e-08 1 1 -4.37114e-08 720 1)" stroke="#191919" stroke-width="2"/>
<rect width="179.317" height="180" transform="matrix(4.37114e-08 1 1 -4.37114e-08 720 180.318)" stroke="#191919" stroke-width="2"/>
<rect width="179.317" height="180" transform="matrix(4.37114e-08 1 1 -4.37114e-08 720 359.635)" stroke="#191919" stroke-width="2"/>
<rect width="179.317" height="180" transform="matrix(4.37114e-08 1 1 -4.37114e-08 720 538.952)" stroke="#191919" stroke-width="2"/>
<rect width="179.317" height="180" transform="matrix(4.37114e-08 1 1 -4.37114e-08 720 718)" stroke="#191919" stroke-width="2"/>
<rect width="179.317" height="180" transform="matrix(4.37114e-08 1 1 -4.37114e-08 900.008 1)" stroke="#191919" stroke-width="2"/>
<rect width="179.317" height="180" transform="matrix(4.37114e-08 1 1 -4.37114e-08 900.008 180.318)" stroke="#191919" stroke-width="2"/>
<rect width="179.317" height="180" transform="matrix(4.37114e-08 1 1 -4.37114e-08 900.008 359.635)" stroke="#191919" stroke-width="2"/>
<rect width="179.317" height="180" transform="matrix(4.37114e-08 1 1 -4.37114e-08 900.008 538.952)" stroke="#191919" stroke-width="2"/>
<rect width="179.317" height="180" transform="matrix(4.37114e-08 1 1 -4.37114e-08 900.008 718)" stroke="#191919" stroke-width="2"/>
<rect width="179.317" height="180" transform="matrix(4.37114e-08 1 1 -4.37114e-08 1080 1)" stroke="#191919" stroke-width="2"/>
<rect width="179.317" height="180" transform="matrix(4.37114e-08 1 1 -4.37114e-08 1080 180.318)" stroke="#191919" stroke-width="2"/>
<rect width="179.317" height="180" transform="matrix(4.37114e-08 1 1 -4.37114e-08 1080 359.635)" stroke="#191919" stroke-width="2"/>
<rect width="179.317" height="180" transform="matrix(4.37114e-08 1 1 -4.37114e-08 1080 538.952)" stroke="#191919" stroke-width="2"/>
<rect width="179.317" height="180" transform="matrix(4.37114e-08 1 1 -4.37114e-08 1080 718)" stroke="#191919" stroke-width="2"/>
<rect width="179.317" height="180" transform="matrix(4.37114e-08 1 1 -4.37114e-08 1260 1)" stroke="#191919" stroke-width="2"/>
<rect width="179.317" height="180" transform="matrix(4.37114e-08 1 1 -4.37114e-08 1260 180.318)" stroke="#191919" stroke-width="2"/>
<rect width="179.317" height="180" transform="matrix(4.37114e-08 1 1 -4.37114e-08 1260 359.635)" stroke="#191919" stroke-width="2"/>
<rect width="179.317" height="180" transform="matrix(4.37114e-08 1 1 -4.37114e-08 1260 538.952)" stroke="#191919" stroke-width="2"/>
<rect width="179.317" height="180" transform="matrix(4.37114e-08 1 1 -4.37114e-08 1260 718)" stroke="#191919" stroke-width="2"/>
</g>
</svg>
