<svg width="1440" height="990" viewBox="0 0 1440 990" fill="none" xmlns="http://www.w3.org/2000/svg">
<g clip-path="url(#clip0_677_2544)">
<rect width="1440" height="990" fill="#30352F"/>
<g opacity="0.4">
<rect width="179.317" height="180" transform="matrix(4.37114e-08 1 1 -4.37114e-08 0 93.3174)" stroke="#191919" stroke-width="2"/>
<rect width="179.317" height="180" transform="matrix(4.37114e-08 1 1 -4.37114e-08 0 -86)" stroke="#191919" stroke-width="2"/>
<rect width="179.317" height="180" transform="matrix(4.37114e-08 1 1 -4.37114e-08 0 272.634)" stroke="#191919" stroke-width="2"/>
<rect width="179.317" height="180" transform="matrix(4.37114e-08 1 1 -4.37114e-08 0 451.952)" stroke="#191919" stroke-width="2"/>
<rect width="179.317" height="180" transform="matrix(4.37114e-08 1 1 -4.37114e-08 0 631.268)" stroke="#191919" stroke-width="2"/>
<rect width="179.317" height="180" transform="matrix(4.37114e-08 1 1 -4.37114e-08 0 810.587)" stroke="#191919" stroke-width="2"/>
<rect width="179.317" height="180" transform="matrix(4.37114e-08 1 1 -4.37114e-08 180.002 93.3173)" stroke="#191919" stroke-width="2"/>
<rect width="179.317" height="180" transform="matrix(4.37114e-08 1 1 -4.37114e-08 180.002 -86)" stroke="#191919" stroke-width="2"/>
<rect width="179.317" height="180" transform="matrix(4.37114e-08 1 1 -4.37114e-08 180.002 272.634)" stroke="#191919" stroke-width="2"/>
<rect width="179.317" height="180" transform="matrix(4.37114e-08 1 1 -4.37114e-08 180.002 451.952)" stroke="#191919" stroke-width="2"/>
<rect width="179.317" height="180" transform="matrix(4.37114e-08 1 1 -4.37114e-08 180.002 631.268)" stroke="#191919" stroke-width="2"/>
<rect width="179.317" height="180" transform="matrix(4.37114e-08 1 1 -4.37114e-08 180.002 810.587)" stroke="#191919" stroke-width="2"/>
<rect width="179.317" height="180" transform="matrix(4.37114e-08 1 1 -4.37114e-08 360.001 93.3173)" stroke="#191919" stroke-width="2"/>
<rect width="179.317" height="180" transform="matrix(4.37114e-08 1 1 -4.37114e-08 360.001 -86)" stroke="#191919" stroke-width="2"/>
<rect width="179.317" height="180" transform="matrix(4.37114e-08 1 1 -4.37114e-08 360.001 272.634)" stroke="#191919" stroke-width="2"/>
<rect width="179.317" height="180" transform="matrix(4.37114e-08 1 1 -4.37114e-08 360.001 451.952)" stroke="#191919" stroke-width="2"/>
<rect width="179.317" height="180" transform="matrix(4.37114e-08 1 1 -4.37114e-08 360.001 631.268)" stroke="#191919" stroke-width="2"/>
<rect width="179.317" height="180" transform="matrix(4.37114e-08 1 1 -4.37114e-08 360.001 810.587)" stroke="#191919" stroke-width="2"/>
<rect width="179.317" height="180" transform="matrix(4.37114e-08 1 1 -4.37114e-08 540.004 93.3174)" stroke="#191919" stroke-width="2"/>
<rect width="179.317" height="180" transform="matrix(4.37114e-08 1 1 -4.37114e-08 540.004 -86)" stroke="#191919" stroke-width="2"/>
<rect width="179.317" height="180" transform="matrix(4.37114e-08 1 1 -4.37114e-08 540.004 272.634)" stroke="#191919" stroke-width="2"/>
<rect width="179.317" height="180" transform="matrix(4.37114e-08 1 1 -4.37114e-08 540.004 451.952)" stroke="#191919" stroke-width="2"/>
<rect width="179.317" height="180" transform="matrix(4.37114e-08 1 1 -4.37114e-08 540.004 631.268)" stroke="#191919" stroke-width="2"/>
<rect width="179.317" height="180" transform="matrix(4.37114e-08 1 1 -4.37114e-08 540.004 810.587)" stroke="#191919" stroke-width="2"/>
<rect width="179.317" height="180" transform="matrix(4.37114e-08 1 1 -4.37114e-08 719.998 93.3173)" stroke="#191919" stroke-width="2"/>
<rect width="179.317" height="180" transform="matrix(4.37114e-08 1 1 -4.37114e-08 719.998 -86)" stroke="#191919" stroke-width="2"/>
<rect width="179.317" height="180" transform="matrix(4.37114e-08 1 1 -4.37114e-08 719.998 272.634)" stroke="#191919" stroke-width="2"/>
<rect width="179.317" height="180" transform="matrix(4.37114e-08 1 1 -4.37114e-08 719.998 451.952)" stroke="#191919" stroke-width="2"/>
<rect width="179.317" height="180" transform="matrix(4.37114e-08 1 1 -4.37114e-08 719.998 631.268)" stroke="#191919" stroke-width="2"/>
<rect width="179.317" height="180" transform="matrix(4.37114e-08 1 1 -4.37114e-08 719.998 810.587)" stroke="#191919" stroke-width="2"/>
<rect width="179.317" height="180" transform="matrix(4.37114e-08 1 1 -4.37114e-08 900 93.3173)" stroke="#191919" stroke-width="2"/>
<rect width="179.317" height="180" transform="matrix(4.37114e-08 1 1 -4.37114e-08 900 -86)" stroke="#191919" stroke-width="2"/>
<rect width="179.317" height="180" transform="matrix(4.37114e-08 1 1 -4.37114e-08 900 272.634)" stroke="#191919" stroke-width="2"/>
<rect width="179.317" height="180" transform="matrix(4.37114e-08 1 1 -4.37114e-08 900 451.952)" stroke="#191919" stroke-width="2"/>
<rect width="179.317" height="180" transform="matrix(4.37114e-08 1 1 -4.37114e-08 900 631.268)" stroke="#191919" stroke-width="2"/>
<rect width="179.317" height="180" transform="matrix(4.37114e-08 1 1 -4.37114e-08 900 810.587)" stroke="#191919" stroke-width="2"/>
<rect width="179.317" height="180" transform="matrix(4.37114e-08 1 1 -4.37114e-08 1080 93.3173)" stroke="#191919" stroke-width="2"/>
<rect width="179.317" height="180" transform="matrix(4.37114e-08 1 1 -4.37114e-08 1080 -86)" stroke="#191919" stroke-width="2"/>
<rect width="179.317" height="180" transform="matrix(4.37114e-08 1 1 -4.37114e-08 1080 272.634)" stroke="#191919" stroke-width="2"/>
<rect width="179.317" height="180" transform="matrix(4.37114e-08 1 1 -4.37114e-08 1080 451.952)" stroke="#191919" stroke-width="2"/>
<rect width="179.317" height="180" transform="matrix(4.37114e-08 1 1 -4.37114e-08 1080 631.268)" stroke="#191919" stroke-width="2"/>
<rect width="179.317" height="180" transform="matrix(4.37114e-08 1 1 -4.37114e-08 1080 810.587)" stroke="#191919" stroke-width="2"/>
<rect width="179.317" height="180" transform="matrix(4.37114e-08 1 1 -4.37114e-08 1260 93.3173)" stroke="#191919" stroke-width="2"/>
<rect width="179.317" height="180" transform="matrix(4.37114e-08 1 1 -4.37114e-08 1260 -86)" stroke="#191919" stroke-width="2"/>
<rect width="179.317" height="180" transform="matrix(4.37114e-08 1 1 -4.37114e-08 1260 272.634)" stroke="#191919" stroke-width="2"/>
<rect width="179.317" height="180" transform="matrix(4.37114e-08 1 1 -4.37114e-08 1260 451.952)" stroke="#191919" stroke-width="2"/>
<rect width="179.317" height="180" transform="matrix(4.37114e-08 1 1 -4.37114e-08 1260 631.268)" stroke="#191919" stroke-width="2"/>
<rect width="179.317" height="180" transform="matrix(4.37114e-08 1 1 -4.37114e-08 1260 810.587)" stroke="#191919" stroke-width="2"/>
</g>
</g>
<defs>
<clipPath id="clip0_677_2544">
<rect width="1440" height="990" fill="white"/>
</clipPath>
</defs>
</svg>
