<svg width="1440" height="789" viewBox="0 0 1440 789" fill="none" xmlns="http://www.w3.org/2000/svg">
<rect width="1439" height="786" transform="translate(0 1)" fill="#F4F4F4"/>
<g opacity="0.1">
<rect width="179.317" height="180" transform="matrix(4.37114e-08 1 1 -4.37114e-08 0 1)" stroke="#191919" stroke-width="2"/>
<rect width="179.317" height="180" transform="matrix(4.37114e-08 1 1 -4.37114e-08 180.002 1)" stroke="#191919" stroke-width="2"/>
<rect width="179.317" height="180" transform="matrix(4.37114e-08 1 1 -4.37114e-08 360.001 1)" stroke="#191919" stroke-width="2"/>
<rect width="179.317" height="180" transform="matrix(4.37114e-08 1 1 -4.37114e-08 540.004 1)" stroke="#191919" stroke-width="2"/>
<rect width="179.317" height="180" transform="matrix(4.37114e-08 1 1 -4.37114e-08 719.998 1)" stroke="#191919" stroke-width="2"/>
<rect width="179.317" height="180" transform="matrix(4.37114e-08 1 1 -4.37114e-08 900 1)" stroke="#191919" stroke-width="2"/>
<rect width="179.317" height="180" transform="matrix(4.37114e-08 1 1 -4.37114e-08 1080 1)" stroke="#191919" stroke-width="2"/>
<rect width="179.317" height="180" transform="matrix(4.37114e-08 1 1 -4.37114e-08 1260 1)" stroke="#191919" stroke-width="2"/>
</g>
<g opacity="0.1">
<rect width="179.317" height="180" transform="matrix(4.37114e-08 1 1 -4.37114e-08 0 608)" stroke="#191919" stroke-width="2"/>
<rect width="179.317" height="180" transform="matrix(4.37114e-08 1 1 -4.37114e-08 180.002 608)" stroke="#191919" stroke-width="2"/>
<rect width="179.317" height="180" transform="matrix(4.37114e-08 1 1 -4.37114e-08 360.001 608)" stroke="#191919" stroke-width="2"/>
<rect width="179.317" height="180" transform="matrix(4.37114e-08 1 1 -4.37114e-08 540.004 608)" stroke="#191919" stroke-width="2"/>
<rect width="179.317" height="180" transform="matrix(4.37114e-08 1 1 -4.37114e-08 719.998 608)" stroke="#191919" stroke-width="2"/>
<rect width="179.317" height="180" transform="matrix(4.37114e-08 1 1 -4.37114e-08 900 608)" stroke="#191919" stroke-width="2"/>
<rect width="179.317" height="180" transform="matrix(4.37114e-08 1 1 -4.37114e-08 1080 608)" stroke="#191919" stroke-width="2"/>
<rect width="179.317" height="180" transform="matrix(4.37114e-08 1 1 -4.37114e-08 1260 608)" stroke="#191919" stroke-width="2"/>
</g>
</svg>
