<svg width="165" height="48" viewBox="0 0 165 48" fill="none" xmlns="http://www.w3.org/2000/svg">
<path d="M57.7686 21.9864V5.2063H70.6955V8.1405H61.1001V21.6551H70.978V24.5893H57.7686V21.9864Z" fill="#F2F2F2"/>
<path d="M72.4199 24.589V11.8518L75.2417 9.08325H83.5382V11.9633H75.6931V24.5922H72.4199V24.589Z" fill="#F2F2F2"/>
<path d="M84.9277 7.31192V4.82056H88.2009V7.31192H84.9277ZM84.9277 24.5922V9.08328H88.2009V24.5922H84.9277Z" fill="#F2F2F2"/>
<path d="M90.4189 6.59216L93.6921 5.2063V9.63787H100.41V12.4064H93.6921V21.8207H100.41V24.5893H93.2407L90.4189 21.8207V6.59216Z" fill="#F2F2F2"/>
<path d="M101.504 21.8778V11.7976L104.271 9.08325H115.334V17.7234H104.778V21.8204H114.769V24.589H104.271L101.504 21.8746V21.8778ZM104.778 15.6749L112.369 15.4614V12.661H104.778V15.6717V15.6749Z" fill="#F2F2F2"/>
<path d="M117.198 24.589V11.8518L120.02 9.08325H128.317V11.9633H120.471V24.5922H117.198V24.589Z" fill="#F2F2F2"/>
<path d="M129.554 7.31192V4.82056H132.827V7.31192H129.554ZM129.554 24.5922V9.08328H132.827V24.5922H129.554Z" fill="#F2F2F2"/>
<path d="M134.69 21.8778V11.7976L137.457 9.08325H146.036L148.803 11.7976V21.8778L146.036 24.5922H137.457L134.69 21.8778ZM137.964 21.8778H145.526V11.7976H137.964V21.8778Z" fill="#F2F2F2"/>
<path d="M150.664 24.589V9.08325H162.178L165 11.8518V24.589H161.727V11.906H153.937V24.589H150.664Z" fill="#F2F2F2"/>
<path d="M57.7974 46.9062V27.52H61.0705V35.4943H70.1593V27.52H73.4324V46.9062H70.1593V38.3775H61.0705V46.9062H57.7974Z" fill="#F2F2F2"/>
<path d="M75.2969 44.1915V34.1114L78.0635 31.397H86.6425L89.409 34.1114V44.1915L86.6425 46.9059H78.0635L75.2969 44.1915ZM78.57 44.1915H86.1326V34.1114H78.57V44.1915Z" fill="#F2F2F2"/>
<path d="M91.2728 31.397H111.032L114.081 34.3885V46.9059H110.834V34.14H104.284V46.9059H101.066V34.14H94.5167V46.9059H91.2695V31.397H91.2728Z" fill="#F2F2F2"/>
<path d="M115.942 44.1915V34.1114L118.708 31.397H129.772V40.0371H119.215V44.1342H129.207V46.9027H118.708L115.942 44.1883V44.1915ZM119.215 37.9886L126.807 37.7114V34.0572H119.215V37.9886Z" fill="#F2F2F2"/>
<path d="M131.466 46.9059V44.1915H142.192V40.2028H131.466V34.1114L134.233 31.397H145.465V34.1114H134.739V37.8771H145.465V44.2743L142.782 46.9059H131.463H131.466Z" fill="#F2F2F2"/>
<path d="M147.777 46.9064V43.5835H150.94V46.9064H147.777Z" fill="#F2F2F2"/>
<path d="M47.5576 16.9586C47.5089 23.5789 47.483 27.3064 47.4375 33.9203L33.9553 47.0303C27.6591 47.0175 24.1099 47.0143 17.8104 47.0048L14.1996 43.4716L4.2373 33.4106L14.1931 23.8688L14.8328 23.254L24.334 32.7638L33.5656 23.8688L24.1262 14.3781L24.5418 13.9798L34.8418 4.15771L44.7034 14.1104L47.5576 16.9618V16.9586Z" fill="#F2F2F2"/>
<path d="M19.1995 9.62791L10.5848 18.0419L0.947266 8.42046L9.62367 0.0256348L19.1995 9.62791Z" fill="#DC7322"/>
</svg>
