<svg width="1030" height="301" viewBox="0 0 1030 301" fill="none" xmlns="http://www.w3.org/2000/svg">
<path d="M356.56 140.654V33.3428H437.67V52.1075H377.464V138.535H439.442V157.3H356.56V140.654Z" fill="#F2F2F2"/>
<path d="M448.488 157.3V75.843L466.194 58.1377H518.25V76.5561H469.026V157.32H448.488V157.3Z" fill="#F2F2F2"/>
<path d="M526.971 46.8103V30.8776H547.508V46.8103H526.971ZM526.971 157.321V58.1384H547.508V157.321H526.971Z" fill="#F2F2F2"/>
<path d="M561.424 42.2056L581.961 33.3428V61.6835H624.116V79.3888H581.961V139.595H624.116V157.3H579.129L561.424 139.595V42.2056Z" fill="#F2F2F2"/>
<path d="M630.981 139.961V75.4966L648.34 58.1377H717.756V113.393H651.519V139.594H714.211V157.3H648.34L630.981 139.941V139.961ZM651.519 100.292L699.154 98.9271V81.0181H651.519V100.272V100.292Z" fill="#F2F2F2"/>
<path d="M729.451 157.3V75.843L747.156 58.1377H799.213V76.5561H749.988V157.32H729.451V157.3Z" fill="#F2F2F2"/>
<path d="M806.975 46.8102V30.8774H827.512V46.8102H806.975ZM806.975 157.321V58.1383H827.512V157.321H806.975Z" fill="#F2F2F2"/>
<path d="M839.207 139.961V75.4966L856.566 58.1377H910.395L927.754 75.4966V139.961L910.395 157.32H856.566L839.207 139.961ZM859.744 139.961H907.196V75.4966H859.744V139.961Z" fill="#F2F2F2"/>
<path d="M939.429 157.3V58.1377H1011.68L1029.38 75.843V157.3H1008.84V76.1894H959.966V157.3H939.429Z" fill="#F2F2F2"/>
<path d="M356.743 300.023V176.045H377.281V227.042H434.308V176.045H454.846V300.023H434.308V245.481H377.281V300.023H356.743Z" fill="#F2F2F2"/>
<path d="M466.54 282.664V218.199L483.899 200.84H537.728L555.087 218.199V282.664L537.728 300.023H483.899L466.54 282.664ZM487.077 282.664H534.529V218.199H487.077V282.664Z" fill="#F2F2F2"/>
<path d="M566.782 200.84H690.76L709.891 219.972V300.023H689.517V218.383H648.422V300.023H628.231V218.383H587.136V300.023H566.762V200.84H566.782Z" fill="#F2F2F2"/>
<path d="M721.566 282.664V218.199L738.925 200.84H808.341V256.096H742.104V282.297H804.796V300.002H738.925L721.566 282.643V282.664ZM742.104 242.995L789.739 241.222V217.853H742.104V242.995Z" fill="#F2F2F2"/>
<path d="M818.975 300.023V282.664H886.272V257.155H818.975V218.199L836.334 200.84H906.809V218.199H839.513V242.282H906.809V283.193L889.98 300.023H818.955H818.975Z" fill="#F2F2F2"/>
<path d="M921.316 300.023V278.772H941.161V300.023H921.316Z" fill="#F2F2F2"/>
<path d="M292.483 108.503C292.177 150.841 292.014 174.679 291.729 216.976L207.135 300.817C167.629 300.735 145.36 300.715 105.834 300.654L83.1774 278.059L20.6689 213.716L83.1367 152.695L87.1504 148.763L146.766 209.58L204.69 152.695L145.462 92.0001L148.07 89.4533L212.697 26.6392L274.574 90.2886L292.483 108.524V108.503Z" fill="#F2F2F2"/>
<path d="M114.553 61.6226L60.5003 115.431L0.0292969 53.9007L54.4695 0.214355L114.553 61.6226Z" fill="#DC7322"/>
</svg>
