<svg width="178" height="52" viewBox="0 0 178 52" fill="none" xmlns="http://www.w3.org/2000/svg">
<path d="M61.6465 24.6628V6.45801H75.671V9.64134H65.2609V24.3033H75.9774V27.4866H61.6465V24.6628Z" fill="#191919"/>
<path d="M77.542 27.4853V13.6667L80.6034 10.6631H89.6042V13.7877H81.093V27.4888H77.542V27.4853Z" fill="#191919"/>
<path d="M91.1113 8.74488V6.04199H94.6624V8.74488H91.1113ZM91.1113 27.4923V10.6666H94.6624V27.4923H91.1113Z" fill="#191919"/>
<path d="M97.0684 7.96153L100.619 6.45801V11.2658H107.908V14.2694H100.619V24.483H107.908V27.4866H100.13L97.0684 24.483V7.96153Z" fill="#191919"/>
<path d="M109.096 24.5439V13.6079L112.097 10.6631H124.1V20.0368H112.647V24.4817H123.487V27.4853H112.097L109.096 24.5405V24.5439ZM112.647 17.8143L120.883 17.5828V14.5446H112.647V17.8109V17.8143Z" fill="#191919"/>
<path d="M126.122 27.4853V13.6667L129.183 10.6631H138.184V13.7877H129.673V27.4888H126.122V27.4853Z" fill="#191919"/>
<path d="M139.526 8.74488V6.04199H143.077V8.74488H139.526ZM139.526 27.4923V10.6666H143.077V27.4923H139.526Z" fill="#191919"/>
<path d="M145.1 24.5439V13.6079L148.101 10.6631H157.408L160.41 13.6079V24.5439L157.408 27.4888H148.101L145.1 24.5439ZM148.651 24.5439H156.855V13.6079H148.651V24.5439Z" fill="#191919"/>
<path d="M162.429 27.4853V10.6631H174.921L177.982 13.6667V27.4853H174.431V13.7254H165.98V27.4853H162.429Z" fill="#191919"/>
<path d="M61.6768 51.7001V30.668H65.2278V39.3193H75.0883V30.668H78.6393V51.7001H75.0883V42.4473H65.2278V51.7001H61.6768Z" fill="#191919"/>
<path d="M80.6631 48.7549V37.8189L83.6646 34.874H92.9719L95.9734 37.8189V48.7549L92.9719 51.6997H83.6646L80.6631 48.7549ZM84.2141 48.7549H92.4188V37.8189H84.2141V48.7549Z" fill="#191919"/>
<path d="M97.9947 34.874H119.431L122.739 38.1196V51.6997H119.216V37.85H112.111V51.6997H108.62V37.85H101.514V51.6997H97.9912V34.874H97.9947Z" fill="#191919"/>
<path d="M124.759 48.7549V37.8189L127.76 34.874H139.763V44.2477H128.31V48.6926H139.15V51.6962H127.76L124.759 48.7514V48.7549ZM128.31 42.0253L136.546 41.7246V37.7601H128.31V42.0253Z" fill="#191919"/>
<path d="M141.601 51.6997V48.7549H153.237V44.4275H141.601V37.8189L144.603 34.874H156.788V37.8189H145.152V41.9043H156.788V48.8447L153.878 51.6997H141.598H141.601Z" fill="#191919"/>
<path d="M159.297 51.6988V48.0938H162.728V51.6988H159.297Z" fill="#191919"/>
<path d="M50.5667 19.2159C50.5139 26.3982 50.4857 30.4422 50.4364 37.6177L35.8095 51.8407C28.9787 51.8268 25.1282 51.8234 18.2939 51.813L14.3765 47.9799L3.56836 37.0646L14.3694 26.7128L15.0634 26.0457L25.3713 36.363L35.3868 26.7128L25.1458 16.4162L25.5968 15.9842L36.7712 5.32812L47.4701 16.1259L50.5667 19.2193V19.2159Z" fill="#625834"/>
<path d="M19.802 11.2613L10.4558 20.3896L0 9.95132L9.41306 0.84375L19.802 11.2613Z" fill="#DC7322"/>
</svg>
